{"title":"Jack Woods -- Equinox  1970-USA-82min","uid":4029425,"size":1098045158,"categoryP":"video","categoryS":"movies","magnet":"?xt=urn:btih:6a67429e7d19a284048129f4550e0455a8f4dc84&amp;dn=Jack+Woods+--+Equinox++1970-USA-82min&amp;tr=udp%3A%2F%2Ftracker.openbittorrent.com%3A80&amp;tr=udp%3A%2F%2Fopen.demonii.com%3A1337&amp;tr=udp%3A%2F%2Ftracker.coppersurfer.tk%3A6969&amp;tr=udp%3A%2F%2Fexodus.desync.com%3A6969","seeders":0,"leechers":0,"uploader":"videoclub2000","files":2,"time":1203098639,"description":"Jack Woods -- Equinox  1970-USA-82min.avi\n\n\n Ripped from the Criterion  Collection by videoclub2000\n\n  Stream #0.0: Video: mpeg4, 640x480, 23.98 fps\n  Stream #0.1: Audio: mp3, 48000 Hz, stereo, 128 kb/s\t\n  Stream #0.2: Audio: mp3, 48000 Hz, stereo, 128 kb/s\t&lt;&lt; Directors Commentary\n\n\nIMDB- &lt;a href=&quot;\thttp://www.imdb.com/title/tt0067055/&quot; rel=&quot;nofollow&quot; target=&quot;_NEW&quot;&gt;\thttp://www.imdb.com/title/tt0067055/&lt;/a&gt;\nWikipedia\thttp://en.wikipedia.org/wiki/Equinox_(film)\n\nLow budget ($6500) Horror/SciFi film with great special effects. Stop motion animation. \n\nOne of the world&amp;#039;s finest stop-motion animators, the late David Allen played a significant creative role in every stunning creature effect seen in Equinox.\n\nFour friends are attacked by a demon while on a picnic, due to possession of a tome of mystic information. Told in flashbacks by the sole survivor.  Written by Todd Schoonover\n\nFour teenagers go on a woods hike and encounter a creepy forest ranger and a crazy old man. The old man is a scientist who had found a mysterious book bound in human skin, the Necronomicon, and when he had read its cryptic symbols it conjured monsters into existence. The teenagers keep the book, and are then persued by monsters, a demonic cult, and the ranger. The ranger turns out to be a red flying devil in human disguise. ","torrent":{"xt":"urn:btih:6a67429e7d19a284048129f4550e0455a8f4dc84","amp;dn":"Jack+Woods+--+Equinox++1970-USA-82min","amp;tr":["udp%3A%2F%2Ftracker.openbittorrent.com%3A80","udp%3A%2F%2Fopen.demonii.com%3A1337","udp%3A%2F%2Ftracker.coppersurfer.tk%3A6969","udp%3A%2F%2Fexodus.desync.com%3A6969"],"infoHash":"6a67429e7d19a284048129f4550e0455a8f4dc84","infoHashBuffer":{"type":"Buffer","data":[106,103,66,158,125,25,162,132,4,129,41,244,85,14,4,85,168,244,220,132]},"announce":[],"urlList":[]}}